<svg width="47" height="60" viewBox="0 0 47 60" fill="none" xmlns="http://www.w3.org/2000/svg">
<path d="M45.0038 27.1532C43.7077 24.223 41.8236 21.593 39.4693 19.4277L37.5265 17.6371C37.4606 17.578 37.3812 17.5361 37.2953 17.5149C37.2094 17.4938 37.1197 17.4942 37.034 17.5161C36.9483 17.5379 36.8693 17.5806 36.8038 17.6403C36.7384 17.7 36.6885 17.7749 36.6586 17.8584L35.7907 20.3598C35.25 21.9291 34.2552 23.5319 32.8466 25.1078C32.7531 25.2084 32.6463 25.2352 32.5728 25.2419C32.4994 25.2486 32.3859 25.2352 32.2858 25.1413C32.1923 25.0609 32.1456 24.9402 32.1522 24.8194C32.3993 20.7823 31.1976 16.2288 28.5672 11.273C26.3907 7.1554 23.3665 3.94315 19.5878 1.70329L16.8305 0.0736884C16.47 -0.140909 16.0094 0.14075 16.0294 0.563238L16.1763 3.7822C16.2764 5.98182 16.0227 7.92661 15.4219 9.5428C14.6875 11.5211 13.6327 13.3586 12.2841 15.0083C11.3456 16.1548 10.2818 17.1918 9.11292 18.0999C6.29763 20.2738 4.00844 23.0593 2.41676 26.2479C0.829001 29.4642 0.00193715 33.0054 0 36.5955C0 39.7608 0.62088 42.8255 1.84929 45.7159C3.03541 48.4987 4.74712 51.0243 6.88977 53.153C9.05283 55.299 11.5631 56.9889 14.3604 58.1625C17.2578 59.383 20.3288 60 23.5 60C26.6711 60 29.7422 59.383 32.6396 58.1692C35.43 57.0025 37.9674 55.301 40.1102 53.1597C42.2733 51.0137 43.969 48.5056 45.1507 45.7226C46.3772 42.8401 47.0064 39.7369 47 36.6022C47 33.3296 46.3323 30.1509 45.0038 27.1532ZM36.919 49.9072C33.3339 53.4749 28.5738 55.4331 23.5 55.4331C18.4261 55.4331 13.666 53.4749 10.081 49.9072C6.50923 46.3462 4.53977 41.6251 4.53977 36.6022C4.53977 33.685 5.19403 30.8885 6.48252 28.2865C7.73763 25.7449 9.60695 23.4715 11.8768 21.7212C13.3245 20.6093 14.6375 19.3309 15.789 17.9121C17.4581 15.8667 18.7666 13.5866 19.6746 11.1389C20.047 10.1292 20.3176 9.08448 20.4824 8.0205C22.0913 9.50927 23.4399 11.3065 24.5682 13.4123C26.798 17.6103 27.8261 21.3457 27.6258 24.5244C27.578 25.273 27.6997 26.0228 27.9818 26.7174C28.264 27.412 28.6992 28.0333 29.2548 28.5347C29.7363 28.9715 30.2994 29.308 30.9114 29.5244C31.5234 29.7408 32.1721 29.833 32.8199 29.7954C34.135 29.7284 35.3434 29.1449 36.2247 28.1591C37.1126 27.1599 37.8804 26.1406 38.5213 25.1011C39.4559 26.3015 40.237 27.6092 40.8579 29.0175C41.9194 31.4183 42.4602 33.9734 42.4602 36.6022C42.4602 41.6251 40.4907 46.353 36.919 49.9072Z" fill="white"/>
</svg>
