<svg width="66" height="153" viewBox="0 0 66 153" fill="none" xmlns="http://www.w3.org/2000/svg">
<path fill-rule="evenodd" clip-rule="evenodd" d="M64.6154 1.72862C65.0543 2.27519 65.4025 2.92449 65.6401 3.63933C65.8777 4.35417 66 5.1205 66 5.89444C66 6.66838 65.8777 7.43472 65.6401 8.14956C65.4025 8.8644 65.0543 9.5137 64.6154 10.0603L11.3858 76.5015L64.6154 142.943C65.0536 143.49 65.4012 144.139 65.6383 144.854C65.8755 145.569 65.9975 146.335 65.9975 147.109C65.9975 147.882 65.8755 148.648 65.6383 149.363C65.4012 150.078 65.0536 150.727 64.6154 151.274C64.1771 151.822 63.6569 152.255 63.0844 152.552C62.5118 152.848 61.8982 153 61.2785 153C60.6588 153 60.0451 152.848 59.4726 152.552C58.9 152.255 58.3798 151.822 57.9416 151.274L1.38465 80.6674C0.945736 80.1208 0.597508 79.4715 0.359906 78.7566C0.122311 78.0418 4.25158e-06 77.2755 4.28541e-06 76.5015C4.31924e-06 75.7276 0.122311 74.9613 0.359906 74.2464C0.597508 73.5316 0.945737 72.8823 1.38465 72.3357L57.9416 1.72862C58.3794 1.18068 58.8995 0.745937 59.4721 0.449312C60.0447 0.152686 60.6586 -2.33482e-07 61.2785 -2.06384e-07C61.8984 -1.79285e-07 62.5123 0.152686 63.0849 0.449312C63.6575 0.745937 64.1776 1.18068 64.6154 1.72862Z" fill="white" fill-opacity="0.5"/>
</svg>
