<svg width="66" height="153" viewBox="0 0 66 153" fill="none" xmlns="http://www.w3.org/2000/svg">
<path fill-rule="evenodd" clip-rule="evenodd" d="M1.38464 151.271C0.945729 150.725 0.597499 150.076 0.359899 149.361C0.122298 148.646 -2.23824e-07 147.879 -2.57654e-07 147.106C-2.91484e-07 146.332 0.122298 145.565 0.359898 144.85C0.597498 144.136 0.945729 143.486 1.38464 142.94L54.6142 76.4985L1.38464 10.0572C0.946433 9.51012 0.598831 8.86066 0.361677 8.14589C0.124523 7.43112 0.00246122 6.66502 0.00246118 5.89136C0.00246115 5.11769 0.124523 4.35161 0.361677 3.63683C0.59883 2.92206 0.946433 2.2726 1.38464 1.72554C1.82284 1.17848 2.34306 0.744522 2.9156 0.448456C3.48814 0.152389 4.10179 -1.79295e-07 4.7215 -2.06384e-07C5.34121 -2.33472e-07 5.95486 0.152389 6.5274 0.448456C7.09994 0.744522 7.62016 1.17848 8.05836 1.72554L64.6153 72.3326C65.0543 72.8792 65.4025 73.5285 65.6401 74.2433C65.8777 74.9582 66 75.7245 66 76.4985C66 77.2724 65.8777 78.0387 65.6401 78.7536C65.4025 79.4684 65.0543 80.1177 64.6153 80.6643L8.05837 151.271C7.62056 151.819 7.10047 152.254 6.52788 152.551C5.95528 152.847 5.34144 153 4.72151 153C4.10157 153 3.48773 152.847 2.91513 152.551C2.34254 152.254 1.82245 151.819 1.38464 151.271Z" fill="white" fill-opacity="0.5"/>
</svg>
